# xmcd
#
# Track frame offsets:
#	150
#	16983
#	33175
#	47208
#	70689
#	85173
#	107474
#	125245
#	141700
#	156297
#	173488
#	186676
#	203701
#	219369
#	235185
#	250868
#	266076
#	284407
#	299551
#	314270
#	330357
#
# Disc length: 4637 seconds
#
# Revision: 1
# Processed by: cddbd v1.5.2PL0 Copyright (c) Steve Scherf et al.
# Submitted via: audiograbber 1.83.01
#
DISCID=3e121b15
DTITLE=Various Artist - Bravo Hits 57 CD 1
DYEAR=2007
DGENRE=Pop
TTITLE0=Nelly Furtado - Say It Right
TTITLE1=Avril Lavigne - Girlfriend
TTITLE2=Mika - Grace Kelly
TTITLE3=Justi Timberlake - What Goes Around... Comes Around
TTITLE4=Christina Aguilera - Candyman
TTITLE5=Jennifer Lopez - Que Hiciste
TTITLE6=Ciara - Like A Boy
TTITLE7=Boundzound - Louder
TTITLE8=Gia Farrell - Hit Me Up
TTITLE9=Bisou - Die erste Träne
TTITLE10=Monrose - Even Heaven Cries
TTITLE11=Lexington Bridge - Kick Back
TTITLE12=No Angels - Goodbye To Yesterday
TTITLE13=Melanie C - The Moment You Believe
TTITLE14=Take That - Shine
TTITLE15=Kaiser Chiefs - Ruby
TTITLE16=Reamonn - Serpentine
TTITLE17=Sunrise Avenue - Forever Yours
TTITLE18=Sasha - Lucky Day
TTITLE19=Sarah Connor - The Impossible Dream (The Quest)
TTITLE20=Ville Valo and Natalia Avelon - Summer Wine
EXTD=
EXTT0=
EXTT1=
EXTT2=
EXTT3=
EXTT4=
EXTT5=
EXTT6=
EXTT7=
EXTT8=
EXTT9=
EXTT10=
EXTT11=
EXTT12=
EXTT13=
EXTT14=
EXTT15=
EXTT16=
EXTT17=
EXTT18=
EXTT19=
EXTT20=
PLAYORDER=
